<svg version="1.1" id="Layer_1" xmlns="http://www.w3.org/2000/svg" xmlns:xlink="http://www.w3.org/1999/xlink" x="0px" y="0px"
	 width="100%" viewBox="0 0 2816 1536" enable-background="new 0 0 2816 1536" xml:space="preserve">
<path fill="#FCFCFC" opacity="1.000000" stroke="none" 
	d="
M1846.000000,1538.000000 
	C1230.737061,1538.000000 616.474243,1538.000000 2.105677,1538.000000 
	C2.105677,1026.129150 2.105677,514.258362 2.105677,2.193751 
	C940.429810,2.193751 1878.859741,2.193751 2817.644775,2.193751 
	C2817.644775,513.999817 2817.644775,1025.999878 2817.644775,1538.000000 
	C2494.257812,1538.000000 2170.628906,1538.000000 1846.000000,1538.000000 
M1394.654785,938.687683 
	C1393.074829,938.614868 1391.494751,938.541992 1388.662720,937.978088 
	C1387.773804,937.985962 1386.884888,937.993835 1384.926392,937.307190 
	C1383.282471,937.028137 1381.638550,936.749146 1378.597900,935.873962 
	C1335.105225,924.102539 1308.552734,895.703308 1296.983398,852.643982 
	C1295.691040,847.834106 1294.695068,842.944641 1293.781372,836.715332 
	C1293.105591,835.156738 1292.429688,833.598083 1291.531128,831.157349 
	C1291.531128,831.157349 1291.082642,830.365784 1292.247070,828.985962 
	C1292.076416,826.595276 1291.905762,824.204529 1292.015625,820.975098 
	C1292.015625,820.975098 1291.651611,820.169006 1291.810425,818.279724 
	C1291.602295,803.523987 1291.394165,788.768311 1291.598633,772.179626 
	C1291.457886,746.125854 1291.317261,720.072083 1291.595825,692.186340 
	C1291.444702,664.800720 1291.293579,637.415161 1291.552612,608.192505 
	C1291.428467,588.821228 1291.304443,569.450012 1291.613281,548.238647 
	C1291.635620,535.295898 1291.631470,522.353027 1291.686035,509.410400 
	C1291.786743,485.504639 1273.247559,466.615845 1249.614258,467.234528 
	C1228.056641,467.798889 1206.472168,467.293274 1184.899780,467.371185 
	C1181.960693,467.381836 1179.024048,468.042297 1174.699951,468.307495 
	C1171.786987,469.493927 1168.874146,470.680359 1164.832764,471.960724 
	C1164.339478,472.482391 1163.846313,473.004059 1163.239014,473.457428 
	C1163.239014,473.457428 1163.116089,473.406982 1161.756714,473.588379 
	C1158.520264,476.311066 1154.872803,478.675537 1152.126953,481.825806 
	C1144.799805,490.232086 1142.220093,500.344513 1142.220947,511.383148 
	C1142.227417,590.201233 1142.133423,669.019287 1142.098511,747.837341 
	C1142.097656,749.815552 1142.408447,751.793823 1142.289429,755.624390 
	C1142.378662,762.494690 1142.467896,769.364990 1142.129883,778.016479 
	C1142.415161,792.530090 1142.700439,807.043701 1142.779175,823.259888 
	C1143.713867,832.870972 1144.322754,842.526794 1145.634521,852.086121 
	C1156.338989,930.087280 1194.983521,990.317993 1261.555908,1032.252686 
	C1297.892700,1055.141602 1337.976807,1067.689331 1380.640503,1071.654297 
	C1393.503052,1072.849609 1406.519409,1072.391846 1421.162598,1073.204346 
	C1432.757202,1072.072632 1444.351929,1070.941040 1457.617188,1070.103149 
	C1467.738525,1067.986572 1477.859741,1065.869995 1489.462646,1063.674927 
	C1500.302612,1059.749146 1511.142578,1055.823486 1523.461792,1051.854858 
	C1537.141113,1044.623901 1550.820435,1037.392822 1565.840332,1029.941650 
	C1569.115112,1027.763550 1572.587769,1025.828979 1575.625732,1023.359558 
	C1583.345581,1017.084351 1590.871094,1010.569641 1599.707397,1003.702454 
	C1608.698486,993.875427 1617.689453,984.048401 1627.796509,973.549561 
	C1637.438110,961.314819 1646.360840,948.633362 1653.384888,933.247498 
	C1658.928833,918.162537 1664.472900,903.077576 1670.624268,887.172241 
	C1670.670532,886.949463 1670.797363,886.705872 1670.746216,886.508362 
	C1670.639282,886.096069 1670.438599,885.708069 1671.370605,884.599121 
	C1671.500000,883.755554 1671.629395,882.911987 1672.283325,880.434021 
	C1672.299316,878.802979 1672.089111,877.132080 1672.367432,875.547180 
	C1674.567871,863.021240 1676.861084,850.511719 1679.655762,836.191406 
	C1679.766113,810.133484 1679.876343,784.075562 1680.387573,756.174744 
	C1680.398071,674.778503 1680.414795,593.382202 1680.390869,511.985931 
	C1680.390015,509.349518 1679.973267,506.713226 1679.994263,502.504364 
	C1678.933716,484.751343 1661.321411,466.843292 1639.433228,467.492859 
	C1616.468262,468.174377 1593.461914,467.334869 1570.483765,467.739380 
	C1550.033813,468.099396 1532.673218,484.719818 1532.076538,505.149200 
	C1531.445190,526.767700 1532.136597,548.424744 1531.900146,571.616028 
	C1532.011353,573.722595 1532.122681,575.829224 1531.873047,579.630737 
	C1531.991577,583.083008 1532.110107,586.535339 1531.876953,591.837585 
	C1531.984497,607.225342 1532.092041,622.613098 1531.856079,639.848328 
	C1531.969360,659.231140 1532.082642,678.613953 1531.852051,699.846069 
	C1531.960449,715.897095 1532.068970,731.948120 1531.833618,749.826782 
	C1531.960938,757.906494 1532.088257,765.986145 1531.870483,775.825378 
	C1531.986206,781.193970 1532.101929,786.562622 1531.843140,793.590698 
	C1531.966187,796.411438 1532.089355,799.232117 1531.863525,803.825623 
	C1531.832275,824.211426 1529.430176,844.261902 1522.307129,864.702454 
	C1516.820435,875.643372 1511.333740,886.584351 1504.671997,898.223328 
	C1495.632935,909.663391 1484.185669,918.274109 1470.897827,926.098877 
	C1470.401245,926.602478 1469.904541,927.106140 1469.671997,927.543396 
	C1469.671997,927.543396 1469.488159,927.342346 1468.037598,927.604126 
	C1455.925537,931.376709 1443.813354,935.149292 1430.415894,938.802368 
	C1429.632202,939.127808 1428.848633,939.453247 1426.210693,939.534485 
	C1416.153809,939.515076 1406.096924,939.495728 1394.654785,938.687683 
z"/>
<path fill="#18C2CA" opacity="1.000000" stroke="none" 
	d="
M1532.250244,570.065002 
	C1532.136597,548.424744 1531.445190,526.767700 1532.076538,505.149200 
	C1532.673218,484.719818 1550.033813,468.099396 1570.483765,467.739380 
	C1593.461914,467.334869 1616.468262,468.174377 1639.433228,467.492859 
	C1661.321411,466.843292 1678.933716,484.751343 1679.335205,503.912476 
	C1678.452393,508.950928 1678.035767,512.581116 1678.033569,516.211548 
	C1677.991821,584.465576 1678.007690,652.719666 1677.972046,720.973694 
	C1677.970337,724.402344 1677.610962,727.830933 1677.383545,731.876465 
	C1675.057617,730.882874 1674.049683,730.668396 1673.308960,730.103455 
	C1661.595703,721.171082 1653.266968,709.141357 1643.966431,697.995850 
	C1642.288208,695.984497 1640.489258,694.034180 1638.523926,692.308533 
	C1630.561401,685.317261 1621.917236,678.993225 1614.629761,671.366882 
	C1602.731445,658.915222 1591.686646,645.647034 1580.300415,632.706970 
	C1572.202515,623.503845 1564.835083,613.504761 1555.826416,605.306213 
	C1548.992310,599.086731 1543.117310,590.351013 1532.228760,589.987610 
	C1532.110107,586.535339 1531.991577,583.083008 1532.526123,578.348633 
	C1532.869629,574.732727 1532.559937,572.398865 1532.250244,570.065002 
z"/>
<path fill="#034580" opacity="1.000000" stroke="none" 
	d="
M1419.465210,1072.691284 
	C1406.519409,1072.391846 1393.503052,1072.849609 1380.640503,1071.654297 
	C1337.976807,1067.689331 1297.892700,1055.141602 1261.555908,1032.252686 
	C1194.983521,990.317993 1156.338989,930.087280 1145.634521,852.086121 
	C1144.322754,842.526794 1143.713867,832.870972 1143.277832,821.762695 
	C1143.892944,813.511841 1144.009155,806.758179 1144.792725,800.112061 
	C1153.059448,807.946716 1160.668701,815.664185 1168.241455,823.417236 
	C1168.926392,824.118530 1169.348633,825.069885 1169.938599,825.871399 
	C1176.372559,834.611206 1181.311646,844.644348 1191.269165,850.340637 
	C1192.380615,850.976440 1193.186768,852.177124 1194.073120,853.170593 
	C1204.671265,865.049561 1215.222778,876.970337 1225.859497,888.814575 
	C1232.928955,896.686584 1240.024048,904.539551 1247.279419,912.239014 
	C1252.929565,918.234863 1259.107300,923.746399 1264.589966,929.884583 
	C1278.280762,945.212463 1291.711792,960.772522 1305.242676,976.243286 
	C1318.496948,991.397888 1336.158569,1002.522034 1345.990479,1020.828552 
	C1346.747437,1022.238403 1348.310425,1023.199341 1349.424683,1024.435913 
	C1360.749268,1037.004150 1371.801514,1049.833862 1383.530640,1062.011719 
	C1386.992676,1065.606079 1392.071533,1068.463257 1396.912354,1069.717773 
	C1404.197510,1071.605713 1411.925537,1071.785400 1419.465210,1072.691284 
z"/>
<path fill="#075A8E" opacity="1.000000" stroke="none" 
	d="
M1487.980957,1063.753418 
	C1477.859741,1065.869995 1467.738525,1067.986572 1456.276733,1069.447510 
	C1448.650513,1068.437622 1443.864380,1065.563354 1439.698486,1060.822266 
	C1431.824951,1051.861206 1423.611694,1043.195312 1415.441895,1034.498413 
	C1393.638550,1011.289001 1371.785889,988.126099 1349.945679,964.951477 
	C1347.665894,962.532410 1345.212036,960.266357 1343.055420,957.744080 
	C1332.309326,945.175598 1321.976074,932.235413 1310.850342,920.015259 
	C1297.057373,904.865784 1282.598145,890.324097 1268.504028,875.446594 
	C1266.012695,872.816711 1264.102661,869.630554 1261.577393,867.039001 
	C1248.207642,853.317993 1234.514648,839.905945 1221.355103,825.988220 
	C1211.583130,815.653076 1202.434326,804.727295 1193.053467,794.024719 
	C1191.096802,791.792297 1189.216431,789.471130 1187.513306,787.041992 
	C1178.927734,774.796997 1170.031616,762.930176 1156.729126,755.174622 
	C1152.265747,752.572510 1148.313965,749.093079 1144.072266,745.077271 
	C1144.060059,724.769226 1144.104004,705.398560 1144.821045,686.094055 
	C1146.890869,687.010193 1148.545044,687.610779 1149.646118,688.747253 
	C1169.733521,709.482422 1191.276367,728.736450 1208.225586,752.555176 
	C1217.092773,765.016296 1225.427856,778.507751 1238.483887,787.681580 
	C1240.511963,789.106689 1241.559937,791.928284 1243.056763,794.107056 
	C1244.175781,795.735901 1245.113281,797.528198 1246.430054,798.976257 
	C1258.211792,811.931396 1270.159912,824.736694 1281.839600,837.782349 
	C1286.583740,843.081177 1287.441040,843.335083 1293.561768,838.092102 
	C1294.695068,842.944641 1295.691040,847.834106 1296.983398,852.643982 
	C1308.552734,895.703308 1335.105225,924.102539 1379.305664,936.871521 
	C1383.098267,942.000977 1385.794067,946.507324 1389.341309,950.194519 
	C1399.878174,961.146912 1411.153564,971.445496 1417.830444,985.504944 
	C1418.386597,986.675842 1419.086792,988.015991 1420.107666,988.692383 
	C1433.393188,997.495422 1440.764404,1011.688965 1451.133911,1023.123047 
	C1461.760376,1034.840576 1470.878174,1047.873047 1483.905518,1057.326660 
	C1485.813721,1058.711548 1486.649170,1061.574463 1487.980957,1063.753418 
z"/>
<path fill="#055087" opacity="1.000000" stroke="none" 
	d="
M1144.128418,746.014648 
	C1148.313965,749.093079 1152.265747,752.572510 1156.729126,755.174622 
	C1170.031616,762.930176 1178.927734,774.796997 1187.513306,787.041992 
	C1189.216431,789.471130 1191.096802,791.792297 1193.053467,794.024719 
	C1202.434326,804.727295 1211.583130,815.653076 1221.355103,825.988220 
	C1234.514648,839.905945 1248.207642,853.317993 1261.577393,867.039001 
	C1264.102661,869.630554 1266.012695,872.816711 1268.504028,875.446594 
	C1282.598145,890.324097 1297.057373,904.865784 1310.850342,920.015259 
	C1321.976074,932.235413 1332.309326,945.175598 1343.055420,957.744080 
	C1345.212036,960.266357 1347.665894,962.532410 1349.945679,964.951477 
	C1371.785889,988.126099 1393.638550,1011.289001 1415.441895,1034.498413 
	C1423.611694,1043.195312 1431.824951,1051.861206 1439.698486,1060.822266 
	C1443.864380,1065.563354 1448.650513,1068.437622 1455.441406,1069.300537 
	C1444.351929,1070.941040 1432.757202,1072.072632 1420.313965,1072.947754 
	C1411.925537,1071.785400 1404.197510,1071.605713 1396.912354,1069.717773 
	C1392.071533,1068.463257 1386.992676,1065.606079 1383.530640,1062.011719 
	C1371.801514,1049.833862 1360.749268,1037.004150 1349.424683,1024.435913 
	C1348.310425,1023.199341 1346.747437,1022.238403 1345.990479,1020.828552 
	C1336.158569,1002.522034 1318.496948,991.397888 1305.242676,976.243286 
	C1291.711792,960.772522 1278.280762,945.212463 1264.589966,929.884583 
	C1259.107300,923.746399 1252.929565,918.234863 1247.279419,912.239014 
	C1240.024048,904.539551 1232.928955,896.686584 1225.859497,888.814575 
	C1215.222778,876.970337 1204.671265,865.049561 1194.073120,853.170593 
	C1193.186768,852.177124 1192.380615,850.976440 1191.269165,850.340637 
	C1181.311646,844.644348 1176.372559,834.611206 1169.938599,825.871399 
	C1169.348633,825.069885 1168.926392,824.118530 1168.241455,823.417236 
	C1160.668701,815.664185 1153.059448,807.946716 1144.726807,799.203369 
	C1143.514771,790.869873 1143.035889,783.552551 1142.557129,776.235291 
	C1142.467896,769.364990 1142.378662,762.494690 1142.876465,754.199829 
	C1143.685059,750.521667 1143.906738,748.268188 1144.128418,746.014648 
z"/>
<path fill="#1182A6" opacity="1.000000" stroke="none" 
	d="
M1144.072266,745.077271 
	C1143.906738,748.268188 1143.685059,750.521667 1143.018677,753.273682 
	C1142.408447,751.793823 1142.097656,749.815552 1142.098511,747.837341 
	C1142.133423,669.019287 1142.227417,590.201233 1142.220947,511.383148 
	C1142.220093,500.344513 1144.799805,490.232086 1152.126953,481.825806 
	C1154.872803,478.675537 1158.520264,476.311066 1162.685303,474.249695 
	C1166.407959,482.928345 1171.275146,489.701996 1177.987549,494.580872 
	C1190.107788,503.390320 1200.236206,514.174377 1210.072510,525.254944 
	C1228.485962,545.997864 1246.611206,566.996765 1264.878662,587.869446 
	C1270.099976,593.835388 1275.466309,599.675354 1280.635132,605.685913 
	C1283.462036,608.973267 1286.829224,610.541443 1291.142456,610.029541 
	C1291.293579,637.415161 1291.444702,664.800720 1290.700684,693.090698 
	C1288.121460,693.088135 1285.717285,692.611755 1284.874390,691.201843 
	C1280.550781,683.970947 1275.512329,677.549683 1268.200806,673.080627 
	C1266.841187,672.249573 1265.920288,670.684875 1264.832642,669.427795 
	C1252.908569,655.645813 1241.106323,641.755615 1228.991943,628.143005 
	C1225.946289,624.720581 1221.504761,622.552124 1218.397095,619.171021 
	C1207.908813,607.759705 1197.708740,596.082642 1187.447266,584.464111 
	C1183.278320,579.743896 1179.591553,574.539124 1175.057983,570.212036 
	C1166.096924,561.658997 1158.228760,552.325623 1151.798706,541.732361 
	C1150.233154,539.153137 1148.031372,536.960144 1146.122192,534.589539 
	C1145.472046,534.880981 1144.821899,535.172485 1144.171753,535.463928 
	C1144.171753,562.328308 1144.171753,589.192627 1144.125122,616.987549 
	C1144.101685,640.621399 1144.124878,663.324707 1144.147949,686.027954 
	C1144.104004,705.398560 1144.060059,724.769226 1144.072266,745.077271 
z"/>
<path fill="#0C719C" opacity="1.000000" stroke="none" 
	d="
M1144.171753,616.057007 
	C1144.171753,589.192627 1144.171753,562.328308 1144.171753,535.463928 
	C1144.821899,535.172485 1145.472046,534.880981 1146.122192,534.589539 
	C1148.031372,536.960144 1150.233154,539.153137 1151.798706,541.732361 
	C1158.228760,552.325623 1166.096924,561.658997 1175.057983,570.212036 
	C1179.591553,574.539124 1183.278320,579.743896 1187.447266,584.464111 
	C1197.708740,596.082642 1207.908813,607.759705 1218.397095,619.171021 
	C1221.504761,622.552124 1225.946289,624.720581 1228.991943,628.143005 
	C1241.106323,641.755615 1252.908569,655.645813 1264.832642,669.427795 
	C1265.920288,670.684875 1266.841187,672.249573 1268.200806,673.080627 
	C1275.512329,677.549683 1280.550781,683.970947 1284.874390,691.201843 
	C1285.717285,692.611755 1288.121460,693.088135 1290.490967,694.006714 
	C1291.317261,720.072083 1291.457886,746.125854 1290.707520,773.085815 
	C1287.264771,772.101746 1284.230713,770.615112 1282.249756,768.247437 
	C1275.663818,760.376160 1269.886108,751.799255 1263.010254,744.206665 
	C1250.519287,730.413574 1237.701294,716.894836 1224.567383,703.712280 
	C1213.316040,692.419250 1201.242798,681.948120 1189.897217,670.744629 
	C1182.823242,663.759216 1176.804932,655.691223 1169.618164,648.837585 
	C1162.434692,641.987061 1157.218994,634.197693 1153.935303,624.917908 
	C1152.306885,620.316467 1149.353760,616.884827 1144.171753,616.057007 
z"/>
<path fill="#096393" opacity="1.000000" stroke="none" 
	d="
M1144.125122,616.987549 
	C1149.353760,616.884827 1152.306885,620.316467 1153.935303,624.917908 
	C1157.218994,634.197693 1162.434692,641.987061 1169.618164,648.837585 
	C1176.804932,655.691223 1182.823242,663.759216 1189.897217,670.744629 
	C1201.242798,681.948120 1213.316040,692.419250 1224.567383,703.712280 
	C1237.701294,716.894836 1250.519287,730.413574 1263.010254,744.206665 
	C1269.886108,751.799255 1275.663818,760.376160 1282.249756,768.247437 
	C1284.230713,770.615112 1287.264771,772.101746 1290.501221,774.002319 
	C1291.394165,788.768311 1291.602295,803.523987 1291.458008,819.367920 
	C1290.785400,821.124390 1290.995239,821.576965 1291.734985,821.813843 
	C1291.905762,824.204529 1292.076416,826.595276 1291.565918,829.900879 
	C1290.899536,831.382935 1291.189331,831.790833 1291.753906,832.039490 
	C1292.429688,833.598083 1293.105591,835.156738 1293.671631,837.403687 
	C1287.441040,843.335083 1286.583740,843.081177 1281.839600,837.782349 
	C1270.159912,824.736694 1258.211792,811.931396 1246.430054,798.976257 
	C1245.113281,797.528198 1244.175781,795.735901 1243.056763,794.107056 
	C1241.559937,791.928284 1240.511963,789.106689 1238.483887,787.681580 
	C1225.427856,778.507751 1217.092773,765.016296 1208.225586,752.555176 
	C1191.276367,728.736450 1169.733521,709.482422 1149.646118,688.747253 
	C1148.545044,687.610779 1146.890869,687.010193 1144.821045,686.094055 
	C1144.124878,663.324707 1144.101685,640.621399 1144.125122,616.987549 
z"/>
<path fill="#17ACBE" opacity="1.000000" stroke="none" 
	d="
M1532.195923,697.996765 
	C1532.082642,678.613953 1531.969360,659.231140 1532.709106,639.005981 
	C1546.703857,644.309998 1553.274292,657.337036 1562.940552,667.022522 
	C1585.887817,690.015198 1607.277222,714.558533 1629.426025,738.354553 
	C1635.705322,745.100891 1642.648438,751.231384 1648.890015,758.010132 
	C1654.937622,764.578430 1660.650024,771.479431 1666.162354,778.506653 
	C1668.941528,782.049561 1671.877197,784.703308 1678.000244,785.541016 
	C1678.000244,779.395508 1677.764038,773.877136 1678.085815,768.391541 
	C1678.290283,764.908386 1679.324585,761.473938 1679.986572,758.017639 
	C1679.876343,784.075562 1679.766113,810.133484 1678.707764,837.120117 
	C1672.682739,839.746582 1668.804321,839.311584 1664.847778,834.556580 
	C1658.347168,826.744019 1650.663330,819.924316 1643.616943,812.553589 
	C1640.660400,809.461121 1638.179077,805.918213 1635.270508,802.775391 
	C1627.025146,793.865906 1619.226318,784.440186 1610.235352,776.346680 
	C1594.928223,762.567383 1580.512329,748.123657 1568.609619,731.243164 
	C1565.971924,727.502197 1562.654785,724.214905 1559.471436,720.890320 
	C1554.716431,715.924316 1549.826172,711.086853 1544.949097,706.239319 
	C1541.286743,702.599121 1538.624634,697.371094 1532.195923,697.996765 
z"/>
<path fill="#19B7C3" opacity="1.000000" stroke="none" 
	d="
M1680.187134,757.096191 
	C1679.324585,761.473938 1678.290283,764.908386 1678.085815,768.391541 
	C1677.764038,773.877136 1678.000244,779.395508 1678.000244,785.541016 
	C1671.877197,784.703308 1668.941528,782.049561 1666.162354,778.506653 
	C1660.650024,771.479431 1654.937622,764.578430 1648.890015,758.010132 
	C1642.648438,751.231384 1635.705322,745.100891 1629.426025,738.354553 
	C1607.277222,714.558533 1585.887817,690.015198 1562.940552,667.022522 
	C1553.274292,657.337036 1546.703857,644.309998 1532.880859,638.082214 
	C1532.092041,622.613098 1531.984497,607.225342 1532.052856,590.912598 
	C1543.117310,590.351013 1548.992310,599.086731 1555.826416,605.306213 
	C1564.835083,613.504761 1572.202515,623.503845 1580.300415,632.706970 
	C1591.686646,645.647034 1602.731445,658.915222 1614.629761,671.366882 
	C1621.917236,678.993225 1630.561401,685.317261 1638.523926,692.308533 
	C1640.489258,694.034180 1642.288208,695.984497 1643.966431,697.995850 
	C1653.266968,709.141357 1661.595703,721.171082 1673.308960,730.103455 
	C1674.049683,730.668396 1675.057617,730.882874 1677.383545,731.876465 
	C1677.610962,727.830933 1677.970337,724.402344 1677.972046,720.973694 
	C1678.007690,652.719666 1677.991821,584.465576 1678.033569,516.211548 
	C1678.035767,512.581116 1678.452393,508.950928 1679.213135,504.698730 
	C1679.973267,506.713226 1680.390015,509.349518 1680.390869,511.985931 
	C1680.414795,593.382202 1680.398071,674.778503 1680.187134,757.096191 
z"/>
<path fill="#1397B4" opacity="1.000000" stroke="none" 
	d="
M1532.215576,774.065857 
	C1532.088257,765.986145 1531.960938,757.906494 1532.730957,748.924316 
	C1536.274658,749.743042 1539.420898,751.013611 1541.462402,753.279663 
	C1545.648804,757.926270 1548.874756,763.451721 1553.146851,768.004944 
	C1568.342407,784.200623 1583.857910,800.095642 1599.146240,816.205078 
	C1603.462769,820.753540 1607.445679,825.621338 1611.528809,830.387878 
	C1614.965820,834.400085 1617.923218,838.920898 1621.795898,842.443604 
	C1633.288208,852.896606 1644.078369,863.860352 1652.678467,876.930664 
	C1655.368530,881.018921 1659.470093,884.166443 1662.840576,887.822937 
	C1665.239258,890.425232 1667.596436,889.235107 1670.016968,887.992615 
	C1664.472900,903.077576 1658.928833,918.162537 1652.119873,933.586182 
	C1648.244995,932.051086 1645.268188,930.527588 1643.088257,928.243530 
	C1632.998047,917.671448 1623.130371,906.886902 1613.179810,896.181519 
	C1611.819702,894.718323 1610.418335,893.293030 1609.075195,891.814697 
	C1594.361572,875.621704 1582.089478,857.218079 1565.538574,842.724426 
	C1556.974365,835.224792 1549.560791,826.975342 1543.622925,817.321106 
	C1542.933350,816.199951 1542.172729,814.755005 1541.092529,814.303589 
	C1535.567017,811.994080 1534.317505,806.743591 1532.212524,802.052856 
	C1532.089355,799.232117 1531.966187,796.411438 1532.554688,792.186646 
	C1532.915894,785.210327 1532.565796,779.638123 1532.215576,774.065857 
z"/>
<path fill="#15A2B9" opacity="1.000000" stroke="none" 
	d="
M1670.320557,887.582397 
	C1667.596436,889.235107 1665.239258,890.425232 1662.840576,887.822937 
	C1659.470093,884.166443 1655.368530,881.018921 1652.678467,876.930664 
	C1644.078369,863.860352 1633.288208,852.896606 1621.795898,842.443604 
	C1617.923218,838.920898 1614.965820,834.400085 1611.528809,830.387878 
	C1607.445679,825.621338 1603.462769,820.753540 1599.146240,816.205078 
	C1583.857910,800.095642 1568.342407,784.200623 1553.146851,768.004944 
	C1548.874756,763.451721 1545.648804,757.926270 1541.462402,753.279663 
	C1539.420898,751.013611 1536.274658,749.743042 1532.902832,748.010498 
	C1532.068970,731.948120 1531.960449,715.897095 1532.023926,698.921387 
	C1538.624634,697.371094 1541.286743,702.599121 1544.949097,706.239319 
	C1549.826172,711.086853 1554.716431,715.924316 1559.471436,720.890320 
	C1562.654785,724.214905 1565.971924,727.502197 1568.609619,731.243164 
	C1580.512329,748.123657 1594.928223,762.567383 1610.235352,776.346680 
	C1619.226318,784.440186 1627.025146,793.865906 1635.270508,802.775391 
	C1638.179077,805.918213 1640.660400,809.461121 1643.616943,812.553589 
	C1650.663330,819.924316 1658.347168,826.744019 1664.847778,834.556580 
	C1668.804321,839.311584 1672.682739,839.746582 1678.442749,838.023010 
	C1676.861084,850.511719 1674.567871,863.021240 1672.367432,875.547180 
	C1672.089111,877.132080 1672.299316,878.802979 1671.572510,881.678223 
	C1670.666504,883.718323 1670.471436,884.514221 1670.276367,885.310120 
	C1670.438599,885.708069 1670.639282,886.096069 1670.746216,886.508362 
	C1670.797363,886.705872 1670.670532,886.949463 1670.320557,887.582397 
z"/>
<path fill="#118CAD" opacity="1.000000" stroke="none" 
	d="
M1532.038086,802.939209 
	C1534.317505,806.743591 1535.567017,811.994080 1541.092529,814.303589 
	C1542.172729,814.755005 1542.933350,816.199951 1543.622925,817.321106 
	C1549.560791,826.975342 1556.974365,835.224792 1565.538574,842.724426 
	C1582.089478,857.218079 1594.361572,875.621704 1609.075195,891.814697 
	C1610.418335,893.293030 1611.819702,894.718323 1613.179810,896.181519 
	C1623.130371,906.886902 1632.998047,917.671448 1643.088257,928.243530 
	C1645.268188,930.527588 1648.244995,932.051086 1651.580688,934.013550 
	C1646.360840,948.633362 1637.438110,961.314819 1626.482910,973.775635 
	C1623.280640,972.757874 1620.898438,971.896057 1619.588745,970.204041 
	C1613.986206,962.966125 1608.602051,955.552551 1603.318359,948.075806 
	C1591.451050,931.283020 1576.933594,916.827515 1562.944824,901.897339 
	C1560.248047,899.019104 1558.047241,895.669312 1555.299683,892.846497 
	C1546.291260,883.591675 1537.186157,874.428589 1527.968872,865.382446 
	C1526.925903,864.358765 1524.933960,864.301880 1523.382080,863.796753 
	C1529.430176,844.261902 1531.832275,824.211426 1532.038086,802.939209 
z"/>
<path fill="#1182A6" opacity="1.000000" stroke="none" 
	d="
M1522.844604,864.249634 
	C1524.933960,864.301880 1526.925903,864.358765 1527.968872,865.382446 
	C1537.186157,874.428589 1546.291260,883.591675 1555.299683,892.846497 
	C1558.047241,895.669312 1560.248047,899.019104 1562.944824,901.897339 
	C1576.933594,916.827515 1591.451050,931.283020 1603.318359,948.075806 
	C1608.602051,955.552551 1613.986206,962.966125 1619.588745,970.204041 
	C1620.898438,971.896057 1623.280640,972.757874 1625.924927,974.111511 
	C1617.689453,984.048401 1608.698486,993.875427 1598.288452,1003.887634 
	C1592.498901,1004.378906 1589.886475,1002.450806 1587.102295,998.836975 
	C1579.246826,988.640808 1570.925903,978.748779 1562.150635,969.331177 
	C1553.121216,959.640869 1543.603516,950.503906 1536.094116,939.411316 
	C1529.269897,929.330933 1522.423828,919.070740 1511.572876,912.469910 
	C1506.030884,909.098755 1505.509399,903.373474 1505.847046,897.525269 
	C1511.333740,886.584351 1516.820435,875.643372 1522.844604,864.249634 
z"/>
<path fill="#118CAD" opacity="1.000000" stroke="none" 
	d="
M1291.347534,609.111023 
	C1286.829224,610.541443 1283.462036,608.973267 1280.635132,605.685913 
	C1275.466309,599.675354 1270.099976,593.835388 1264.878662,587.869446 
	C1246.611206,566.996765 1228.485962,545.997864 1210.072510,525.254944 
	C1200.236206,514.174377 1190.107788,503.390320 1177.987549,494.580872 
	C1171.275146,489.701996 1166.407959,482.928345 1163.364990,474.158997 
	C1163.116089,473.406982 1163.239014,473.457428 1163.858398,473.452576 
	C1164.972290,472.920776 1165.466797,472.393799 1165.961182,471.866821 
	C1168.874146,470.680359 1171.786987,469.493927 1176.037598,468.856476 
	C1186.313477,469.599915 1195.269653,469.526703 1204.180664,470.125519 
	C1207.566895,470.353058 1211.754272,471.186279 1214.015625,473.364197 
	C1222.042114,481.093964 1229.386841,489.530853 1237.009399,497.681488 
	C1239.047363,499.860657 1240.907227,502.309540 1243.273071,504.061859 
	C1255.636597,513.218933 1264.160034,525.981384 1274.608276,536.928101 
	C1279.483521,542.036011 1282.817749,549.293579 1291.180420,550.078735 
	C1291.304443,569.450012 1291.428467,588.821228 1291.347534,609.111023 
z"/>
<path fill="#0C749F" opacity="1.000000" stroke="none" 
	d="
M1505.259521,897.874268 
	C1505.509399,903.373474 1506.030884,909.098755 1511.572876,912.469910 
	C1522.423828,919.070740 1529.269897,929.330933 1536.094116,939.411316 
	C1543.603516,950.503906 1553.121216,959.640869 1562.150635,969.331177 
	C1570.925903,978.748779 1579.246826,988.640808 1587.102295,998.836975 
	C1589.886475,1002.450806 1592.498901,1004.378906 1597.671875,1004.111816 
	C1590.871094,1010.569641 1583.345581,1017.084351 1575.625732,1023.359558 
	C1572.587769,1025.828979 1569.115112,1027.763550 1564.364258,1030.011597 
	C1558.116699,1030.431152 1555.010498,1028.286377 1552.109741,1024.428345 
	C1543.387451,1012.827698 1534.514038,1001.309021 1525.099976,990.269714 
	C1516.315674,979.969055 1505.460815,971.205750 1497.948608,960.118469 
	C1491.573242,950.709412 1483.312134,944.178040 1474.845947,937.480652 
	C1471.362183,934.724487 1469.843384,931.477600 1469.488159,927.342346 
	C1469.488159,927.342346 1469.671997,927.543396 1470.081787,927.518188 
	C1470.996826,927.003906 1471.501953,926.514771 1472.007080,926.025574 
	C1484.185669,918.274109 1495.632935,909.663391 1505.259521,897.874268 
z"/>
<path fill="#0A6A98" opacity="1.000000" stroke="none" 
	d="
M1468.762939,927.473267 
	C1469.843384,931.477600 1471.362183,934.724487 1474.845947,937.480652 
	C1483.312134,944.178040 1491.573242,950.709412 1497.948608,960.118469 
	C1505.460815,971.205750 1516.315674,979.969055 1525.099976,990.269714 
	C1534.514038,1001.309021 1543.387451,1012.827698 1552.109741,1024.428345 
	C1555.010498,1028.286377 1558.116699,1030.431152 1563.694092,1030.121704 
	C1550.820435,1037.392822 1537.141113,1044.623901 1522.615967,1051.199951 
	C1510.851196,1041.370972 1501.438232,1030.692749 1494.024170,1018.665771 
	C1486.634399,1006.678589 1477.317871,996.591003 1467.671631,986.590576 
	C1459.623901,978.247192 1451.184692,970.112000 1444.337036,960.837524 
	C1439.401611,954.152649 1432.100220,948.378601 1431.701294,938.921875 
	C1443.813354,935.149292 1455.925537,931.376709 1468.762939,927.473267 
z"/>
<path fill="#096393" opacity="1.000000" stroke="none" 
	d="
M1431.058594,938.862183 
	C1432.100220,948.378601 1439.401611,954.152649 1444.337036,960.837524 
	C1451.184692,970.112000 1459.623901,978.247192 1467.671631,986.590576 
	C1477.317871,996.591003 1486.634399,1006.678589 1494.024170,1018.665771 
	C1501.438232,1030.692749 1510.851196,1041.370972 1521.876221,1051.221436 
	C1511.142578,1055.823486 1500.302612,1059.749146 1488.721802,1063.714111 
	C1486.649170,1061.574463 1485.813721,1058.711548 1483.905518,1057.326660 
	C1470.878174,1047.873047 1461.760376,1034.840576 1451.133911,1023.123047 
	C1440.764404,1011.688965 1433.393188,997.495422 1420.107666,988.692383 
	C1419.086792,988.015991 1418.386597,986.675842 1417.830444,985.504944 
	C1411.153564,971.445496 1399.878174,961.146912 1389.341309,950.194519 
	C1385.794067,946.507324 1383.098267,942.000977 1380.003906,937.169617 
	C1381.638550,936.749146 1383.282471,937.028137 1385.720459,938.090088 
	C1387.648071,938.738403 1388.781372,938.603760 1389.914795,938.469116 
	C1391.494751,938.541992 1393.074829,938.614868 1395.713379,939.712646 
	C1406.744995,940.876282 1416.717896,941.033386 1426.691284,941.094604 
	C1427.146484,941.097473 1427.606934,940.237122 1428.064941,939.778687 
	C1428.848633,939.453247 1429.632202,939.127808 1431.058594,938.862183 
z"/>
<path fill="#219BB3" opacity="1.000000" stroke="none" 
	d="
M1291.396851,549.158691 
	C1282.817749,549.293579 1279.483521,542.036011 1274.608276,536.928101 
	C1264.160034,525.981384 1255.636597,513.218933 1243.273071,504.061859 
	C1240.907227,502.309540 1239.047363,499.860657 1237.009399,497.681488 
	C1229.386841,489.530853 1222.042114,481.093964 1214.015625,473.364197 
	C1211.754272,471.186279 1207.566895,470.353058 1204.180664,470.125519 
	C1195.269653,469.526703 1186.313477,469.599915 1176.730713,468.903656 
	C1179.024048,468.042297 1181.960693,467.381836 1184.899780,467.371185 
	C1206.472168,467.293274 1228.056641,467.798889 1249.614258,467.234528 
	C1273.247559,466.615845 1291.786743,485.504639 1291.686035,509.410400 
	C1291.631470,522.353027 1291.635620,535.295898 1291.396851,549.158691 
z"/>
<path fill="#1182A6" opacity="1.000000" stroke="none" 
	d="
M1142.343506,777.125854 
	C1143.035889,783.552551 1143.514771,790.869873 1144.059570,799.095825 
	C1144.009155,806.758179 1143.892944,813.511841 1143.381104,820.911377 
	C1142.700439,807.043701 1142.415161,792.530090 1142.343506,777.125854 
z"/>
<path fill="#075A8E" opacity="1.000000" stroke="none" 
	d="
M1427.137817,939.656616 
	C1427.606934,940.237122 1427.146484,941.097473 1426.691284,941.094604 
	C1416.717896,941.033386 1406.744995,940.876282 1396.406006,940.106934 
	C1406.096924,939.495728 1416.153809,939.515076 1427.137817,939.656616 
z"/>
<path fill="#118CAD" opacity="1.000000" stroke="none" 
	d="
M1532.042969,774.945618 
	C1532.565796,779.638123 1532.915894,785.210327 1532.741943,791.356934 
	C1532.101929,786.562622 1531.986206,781.193970 1532.042969,774.945618 
z"/>
<path fill="#19B7C3" opacity="1.000000" stroke="none" 
	d="
M1532.075195,570.840515 
	C1532.559937,572.398865 1532.869629,574.732727 1532.706543,577.501221 
	C1532.122681,575.829224 1532.011353,573.722595 1532.075195,570.840515 
z"/>
<path fill="#075A8E" opacity="1.000000" stroke="none" 
	d="
M1389.288818,938.223572 
	C1388.781372,938.603760 1387.648071,938.738403 1386.255371,938.437378 
	C1386.884888,937.993835 1387.773804,937.985962 1389.288818,938.223572 
z"/>
<path fill="#219BB3" opacity="1.000000" stroke="none" 
	d="
M1291.875244,821.394470 
	C1290.995239,821.576965 1290.785400,821.124390 1291.378662,820.312622 
	C1291.651611,820.169006 1292.015625,820.975098 1291.875244,821.394470 
z"/>
<path fill="#0A6A98" opacity="1.000000" stroke="none" 
	d="
M1471.452393,926.062256 
	C1471.501953,926.514771 1470.996826,927.003906 1469.949707,927.551392 
	C1469.904541,927.106140 1470.401245,926.602478 1471.452393,926.062256 
z"/>
<path fill="#1397B4" opacity="1.000000" stroke="none" 
	d="
M1670.823486,884.954590 
	C1670.471436,884.514221 1670.666504,883.718323 1671.310181,882.495422 
	C1671.629395,882.911987 1671.500000,883.755554 1670.823486,884.954590 
z"/>
<path fill="#075A8E" opacity="1.000000" stroke="none" 
	d="
M1291.642578,831.598389 
	C1291.189331,831.790833 1290.899536,831.382935 1290.983643,830.590820 
	C1291.082642,830.365784 1291.531128,831.157349 1291.642578,831.598389 
z"/>
<path fill="#1182A6" opacity="1.000000" stroke="none" 
	d="
M1165.396973,471.913757 
	C1165.466797,472.393799 1164.972290,472.920776 1163.915527,473.486755 
	C1163.846313,473.004059 1164.339478,472.482391 1165.396973,471.913757 
z"/>
</svg>